<svg width="44" height="42" viewBox="0 0 44 42" fill="none" xmlns="http://www.w3.org/2000/svg">
<path d="M29 4.17334V11.3832C29 11.5626 29.0961 11.7283 29.2519 11.8173L32.2481 13.5294C32.4039 13.6184 32.5 13.7841 32.5 13.9635V14.6733C32.5 14.9495 32.2761 15.1733 32 15.1733H27C26.7239 15.1733 26.5 15.3972 26.5 15.6733V16.1733M29 4.17334V2.17334C29 1.8972 29.2239 1.67334 29.5 1.67334H38.5C38.7761 1.67334 39 1.8972 39 2.17334V4.17334M29 4.17334H39M39 4.17334V10.4662C39 10.5988 38.9473 10.726 38.8536 10.8198L35.6464 14.0269C35.5527 14.1207 35.5 14.2478 35.5 14.3804V15.1733C35.5 15.4495 35.7239 15.6733 36 15.6733H38C38.2761 15.6733 38.5 15.8972 38.5 16.1733V17.1733C38.5 17.4495 38.7239 17.6733 39 17.6733H42C42.2761 17.6733 42.5 17.8972 42.5 18.1733V19.8832C42.5 20.0626 42.4039 20.2283 42.2481 20.3173L39.3362 21.9812C39.1383 22.0943 39.0419 22.327 39.1019 22.5469L41.8462 32.6094C41.927 32.9056 41.7242 33.204 41.419 33.2379L39.75 33.4233M31.5 9.67334L33 11.1733M39.75 33.4233L37.946 33.6238C37.6923 33.652 37.458 33.4845 37.4027 33.2353L35.0556 22.6733M39.75 33.4233L39.5216 35.9352C39.508 36.0858 39.4269 36.2221 39.3011 36.306L38.126 37.0894C38.0438 37.1441 37.9473 37.1733 37.8486 37.1733H31.1514C31.0527 37.1733 30.9562 37.2026 30.874 37.2573L29.7226 38.0249C29.5836 38.1176 29.5 38.2738 29.5 38.4409V39.4662C29.5 39.5988 29.5527 39.726 29.6464 39.8198L30.8536 41.0269C30.9473 41.1207 31.0745 41.1733 31.2071 41.1733H43M31.5 20.1733H34.0989C34.3333 20.1733 34.5362 20.3361 34.587 20.5649L35.0556 22.6733M31.5 20.1733H27C26.7239 20.1733 26.5 19.9495 26.5 19.6733V19.6733M31.5 20.1733V22.1733M31.5 22.1733L35.0556 22.6733M31.5 22.1733L30 24.6733M26.5 16.1733H25.1514C25.0527 16.1733 24.9562 16.2026 24.874 16.2573L23.7226 17.0249C23.5836 17.1176 23.5 17.2738 23.5 17.4409V18.4662C23.5 18.5988 23.5527 18.726 23.6464 18.8198L24.3536 19.5269C24.4473 19.6207 24.5745 19.6733 24.7071 19.6733H26.5M26.5 16.1733V19.6733M26 10.6733H10.7902C10.6107 10.6733 10.4451 10.7695 10.356 10.9253L4.5 21.1733M4.5 21.1733H15.5M4.5 21.1733H3.20711C3.0745 21.1733 2.94732 21.226 2.85355 21.3198L1.14645 23.0269C1.05268 23.1207 1 23.2478 1 23.3804V31.6733M10 34.6733V39.4662C10 39.5988 9.94732 39.726 9.85355 39.8198L8.64645 41.0269C8.55268 41.1207 8.4255 41.1733 8.29289 41.1733H6.5M10 34.6733H26.5M10 34.6733H6.5M1 34.6733V39.5922C1 39.6459 1.00866 39.6993 1.02566 39.7503L1.38604 40.8315C1.45409 41.0356 1.64516 41.1733 1.86038 41.1733H3.75M1 34.6733H3.75M1 34.6733V31.6733M6.5 34.6733V41.1733M6.5 34.6733H3.75M6.5 41.1733H3.75M3.75 34.6733V41.1733M1 31.6733H27.5M27 23.6733H15.1514C15.0527 23.6733 14.9562 23.7026 14.874 23.7573L13.7226 24.5249C13.5836 24.6176 13.5 24.7738 13.5 24.9409V26.6733M27 29.6733H14.7071C14.5745 29.6733 14.4473 29.6207 14.3536 29.5269L13.6464 28.8198C13.5527 28.726 13.5 28.5988 13.5 28.4662V26.6733M13.5 26.6733H27M17.5 13.6733L21.5 15.6733M21.5 18.1733H17M21 19.6733L17.5 22.1733M10.8536 24.5269L10.1464 23.8198C10.0527 23.726 9.9255 23.6733 9.79289 23.6733H4.65139C4.55268 23.6733 4.45617 23.7026 4.37404 23.7573L3.97265 24.0249C3.83355 24.1176 3.75 24.2738 3.75 24.4409V28.5067C3.75 28.6149 3.78509 28.7201 3.85 28.8067L4.35 29.4733C4.44443 29.5992 4.59262 29.6733 4.75 29.6733H9.79289C9.9255 29.6733 10.0527 29.6207 10.1464 29.5269L10.8536 28.8198C10.9473 28.726 11 28.5988 11 28.4662V24.8804C11 24.7478 10.9473 24.6207 10.8536 24.5269Z" stroke="#9E9E9E" stroke-width="1.5" stroke-linejoin="round"/>
</svg>
