<svg width="30" height="27" viewBox="0 0 30 27" fill="none" xmlns="http://www.w3.org/2000/svg">
<path d="M26.3546 2.51925C26.0257 1.57265 25.1273 0.898804 24.0764 0.898804H6.42792C5.37703 0.898804 4.47857 1.57265 4.14966 2.51925L0.8125 12.1296V24.9649C0.8125 25.8473 1.53448 26.5693 2.41691 26.5693H4.02131C4.91176 26.5693 5.62572 25.8473 5.62572 24.9649V23.3605H24.8786V24.9649C24.8786 25.8473 25.6006 26.5693 26.483 26.5693H28.0874C28.9778 26.5693 29.6918 25.8473 29.6918 24.9649V12.1296L26.3546 2.51925ZM6.42792 18.5473C5.09626 18.5473 4.02131 17.4723 4.02131 16.1407C4.02131 14.809 5.09626 13.734 6.42792 13.734C7.75958 13.734 8.83453 14.809 8.83453 16.1407C8.83453 17.4723 7.75958 18.5473 6.42792 18.5473ZM24.0764 18.5473C22.7447 18.5473 21.6698 17.4723 21.6698 16.1407C21.6698 14.809 22.7447 13.734 24.0764 13.734C25.408 13.734 26.483 14.809 26.483 16.1407C26.483 17.4723 25.408 18.5473 24.0764 18.5473ZM4.02131 10.5252L6.42792 3.30541H24.0764L26.483 10.5252H4.02131Z" fill="url(#paint0_linear_283_155)"/>
<defs>
<linearGradient id="paint0_linear_283_155" x1="32.3369" y1="0.898804" x2="-2.43275" y2="6.52937" gradientUnits="userSpaceOnUse">
<stop offset="0.0155367" stop-color="#19FB9B"/>
<stop offset="1" stop-color="#6CC0E6"/>
</linearGradient>
</defs>
</svg>
