<svg width="81" height="77" viewBox="0 0 81 77" fill="none" xmlns="http://www.w3.org/2000/svg">
<path d="M40.4991 76.5908C32.4969 76.5908 24.6743 74.3608 18.0207 70.1827C11.3671 66.0047 6.18124 60.0663 3.11892 53.1184C0.0565932 46.1706 -0.744651 38.5254 0.816509 31.1497C2.37767 23.7739 6.23111 16.9988 11.8896 11.6812C17.548 6.36354 24.7573 2.74219 32.6058 1.27506C40.4542 -0.192077 48.5894 0.560908 55.9825 3.43879C63.3756 6.31667 69.6946 11.1902 74.1404 17.4431C78.5862 23.6959 80.9592 31.0473 80.9592 38.5676C80.9592 48.652 76.6964 58.3233 69.1087 65.454C61.521 72.5848 51.2298 76.5908 40.4991 76.5908ZM40.4991 5.97633C33.6401 5.97633 26.935 7.88778 21.2319 11.469C15.5288 15.0501 11.0838 20.1402 8.45895 26.0955C5.8341 32.0507 5.14732 38.6038 6.48545 44.9259C7.82359 51.2479 11.1265 57.0552 15.9766 61.6131C20.8267 66.1711 27.0061 69.2751 33.7334 70.5327C40.4607 71.7902 47.4336 71.1448 53.7706 68.678C60.1075 66.2113 65.5238 62.034 69.3345 56.6744C73.1452 51.3147 75.1791 45.0136 75.1791 38.5676C75.1791 29.9239 71.5254 21.6341 65.0216 15.5221C58.5178 9.41004 49.6968 5.97633 40.4991 5.97633Z" fill="url(#paint0_linear_232_207)"/>
<defs>
<linearGradient id="paint0_linear_232_207" x1="88.3708" y1="0.544435" x2="-9.31715" y2="15.5074" gradientUnits="userSpaceOnUse">
<stop offset="0.0155367" stop-color="#19FB9B"/>
<stop offset="1" stop-color="#6CC0E6"/>
</linearGradient>
</defs>
</svg>
