<svg width="82" height="83" viewBox="0 0 82 83" fill="none" xmlns="http://www.w3.org/2000/svg">
<path d="M40.835 82.1566C32.7586 82.1566 24.8636 79.7616 18.1483 75.2746C11.433 70.7876 6.1991 64.4101 3.1084 56.9485C0.0176931 49.4868 -0.790976 41.2763 0.784651 33.3551C2.36028 25.4339 6.24943 18.1578 11.9603 12.4469C17.6712 6.73601 24.9473 2.84685 32.8685 1.27122C40.7897 -0.304404 49.0003 0.504265 56.4619 3.59497C63.9235 6.68567 70.3011 11.9196 74.7881 18.6349C79.2751 25.3502 81.67 33.2452 81.67 41.3216C81.67 52.1517 77.3678 62.5382 69.7097 70.1963C62.0517 77.8543 51.6651 82.1566 40.835 82.1566ZM40.835 6.32016C33.9124 6.32016 27.1452 8.37296 21.3893 12.219C15.6333 16.065 11.1471 21.5314 8.49791 27.9271C5.84874 34.3228 5.15559 41.3604 6.50613 48.15C7.85667 54.9396 11.1902 61.1763 16.0853 66.0713C20.9803 70.9664 27.217 74.2999 34.0066 75.6505C40.7962 77.001 47.8338 76.3079 54.2295 73.6587C60.6252 71.0095 66.0916 66.5233 69.9376 60.7673C73.7836 55.0114 75.8364 48.2442 75.8364 41.3216C75.8364 32.0386 72.1488 23.1359 65.5848 16.5718C59.0207 10.0078 50.118 6.32016 40.835 6.32016Z" fill="url(#paint0_linear_398_112)"/>
<path d="M54.4716 65.475L38.3522 45.8639V12.8514H44.1194V42.9521L58.5375 60.5284L54.4716 65.475Z" fill="url(#paint1_linear_398_112)"/>
<defs>
<linearGradient id="paint0_linear_398_112" x1="89.1503" y1="0.486574" x2="-9.70768" y2="14.7168" gradientUnits="userSpaceOnUse">
<stop offset="0.0155367" stop-color="#19FB9B"/>
<stop offset="1" stop-color="#6CC0E6"/>
</linearGradient>
<linearGradient id="paint1_linear_398_112" x1="89.1503" y1="0.486574" x2="-9.70768" y2="14.7168" gradientUnits="userSpaceOnUse">
<stop offset="0.0155367" stop-color="#19FB9B"/>
<stop offset="1" stop-color="#6CC0E6"/>
</linearGradient>
</defs>
</svg>
