<svg width="27" height="27" viewBox="0 0 27 27" fill="none" xmlns="http://www.w3.org/2000/svg">
<path d="M22.7679 4.19531C20.2984 1.73437 17.0057 0.367188 13.5301 0.367188C6.30449 0.367188 0.450837 6.20052 0.450837 13.401C0.450837 15.6797 1.09108 17.9583 2.18864 19.8724L0.359375 26.6172L7.3106 24.7943C9.23133 25.7969 11.335 26.3437 13.5301 26.3437C20.7557 26.3437 26.6094 20.5104 26.6094 13.3099C26.5179 9.9375 25.2374 6.65625 22.7679 4.19531ZM19.8411 18.0495C19.5667 18.7786 18.2862 19.5078 17.646 19.599C17.0972 19.6901 16.3655 19.6901 15.6338 19.5078C15.1764 19.3255 14.5362 19.1432 13.8045 18.7786C10.5118 17.4115 8.40816 14.1302 8.22523 13.8568C8.0423 13.6745 6.85328 12.125 6.85328 10.4844C6.85328 8.84375 7.67645 8.11458 7.95084 7.75C8.22523 7.38541 8.59108 7.38542 8.86547 7.38542C9.0484 7.38542 9.32278 7.38542 9.50571 7.38542C9.68864 7.38542 9.96303 7.29427 10.2374 7.93229C10.5118 8.57031 11.1521 10.2109 11.2435 10.3021C11.335 10.4844 11.335 10.6667 11.2435 10.849C11.1521 11.0312 11.0606 11.2135 10.8777 11.3958C10.6947 11.5781 10.5118 11.8516 10.4203 11.9427C10.2374 12.125 10.0545 12.3073 10.2374 12.5807C10.4203 12.9453 11.0606 13.9479 12.0667 14.8594C13.3472 15.9531 14.3533 16.3177 14.7191 16.5C15.085 16.6823 15.2679 16.5911 15.4508 16.4089C15.6338 16.2266 16.274 15.4974 16.4569 15.1328C16.6399 14.7682 16.9142 14.8594 17.1886 14.9505C17.463 15.0417 19.1094 15.862 19.3838 16.0443C19.7496 16.2266 19.9325 16.3177 20.024 16.4089C20.1155 16.6823 20.1155 17.3203 19.8411 18.0495Z" fill="white"/>
</svg>
