<svg width="24" height="23" viewBox="0 0 24 23" fill="none" xmlns="http://www.w3.org/2000/svg">
<path d="M4.98493 9.94608C6.82493 13.5622 9.78938 16.5139 13.4055 18.3666L16.2166 15.5555C16.5616 15.2105 17.0727 15.0955 17.5199 15.2489C18.951 15.7216 20.4972 15.9772 22.0816 15.9772C22.7844 15.9772 23.3594 16.5522 23.3594 17.255V21.7144C23.3594 22.4172 22.7844 22.9922 22.0816 22.9922C10.0833 22.9922 0.359375 13.2683 0.359375 1.26997C0.359375 0.567187 0.934375 -0.0078125 1.63715 -0.0078125H6.10938C6.81215 -0.0078125 7.38715 0.567187 7.38715 1.26997C7.38715 2.86719 7.64271 4.40052 8.11549 5.83163C8.25604 6.27885 8.15382 6.77719 7.79604 7.13497L4.98493 9.94608Z" fill="white"/>
</svg>
