<svg width="26" height="23" viewBox="0 0 26 23" fill="none" xmlns="http://www.w3.org/2000/svg">
<path d="M0.797751 11.056L6.54538 13.1992L8.78595 20.408C8.88337 20.8951 9.46788 20.9925 9.85755 20.7003L13.0723 18.07C13.3645 17.7778 13.8516 17.7778 14.2413 18.07L19.9889 22.2589C20.3786 22.5512 20.9631 22.3563 21.0605 21.8693L25.3468 1.4117C25.4443 0.924613 24.9572 0.437533 24.4701 0.632367L0.797751 9.78956C0.21325 9.9844 0.21325 10.8611 0.797751 11.056ZM8.49371 12.1276L19.7941 5.21096C19.9889 5.11354 20.1837 5.4058 19.9889 5.50321L10.7343 14.1733C10.442 14.4656 10.1498 14.8552 10.1498 15.3423L9.85755 17.6803C9.85755 17.9726 9.37045 18.07 9.27304 17.6803L8.10402 13.394C7.81177 12.9069 8.00663 12.3224 8.49371 12.1276Z" fill="white"/>
</svg>
