<svg width="29" height="36" viewBox="0 0 29 36" fill="none" xmlns="http://www.w3.org/2000/svg">
<path fill-rule="evenodd" clip-rule="evenodd" d="M8.73695 15.8532C8.73695 12.8053 11.2069 10.3353 14.2548 10.3353C17.3014 10.3353 19.771 12.8056 19.771 15.8532C19.771 18.8994 17.301 21.3693 14.2548 21.3693C11.2073 21.3693 8.73695 18.8997 8.73695 15.8532ZM14.2548 12.8922C12.619 12.8922 11.2938 14.2174 11.2938 15.8532C11.2938 17.4869 12.6187 18.8125 14.2548 18.8125C15.8889 18.8125 17.2141 17.4872 17.2141 15.8532C17.2141 14.2171 15.8886 12.8922 14.2548 12.8922Z" fill="url(#paint0_linear_2001_251)"/>
<path fill-rule="evenodd" clip-rule="evenodd" d="M14.2532 3.39888C7.98051 3.39888 2.61813 9.07133 2.8161 15.4572C2.95728 20.011 5.85781 24.2562 8.9364 27.472C10.4537 29.057 11.9655 30.3412 13.0989 31.2293C13.5588 31.5896 13.9548 31.8834 14.2613 32.1044C14.5666 31.889 14.9598 31.6028 15.4161 31.2516C16.548 30.3803 18.058 29.1164 19.5736 27.5459C22.645 24.363 25.5495 20.1173 25.6919 15.4577C25.887 9.07105 20.5255 3.39888 14.2532 3.39888ZM14.2532 33.6554C13.5554 34.7266 13.5551 34.7264 13.5547 34.7261L13.5508 34.7236L13.5417 34.7176L13.5102 34.6968C13.4835 34.6791 13.4453 34.6535 13.3964 34.6204C13.2987 34.5541 13.1582 34.4575 12.9808 34.3319C12.6262 34.0808 12.1238 33.7135 11.5219 33.2419C10.3201 32.3003 8.71176 30.9349 7.08941 29.2402C3.88868 25.8968 0.431759 21.0626 0.260432 15.5364C0.019549 7.76656 6.47948 0.84198 14.2532 0.84198C22.0271 0.84198 28.4849 7.76664 28.2476 15.5358C28.0756 21.163 24.6218 25.9967 21.4135 29.3214C19.7893 31.0046 18.179 32.3516 16.9757 33.2778C16.3731 33.7416 15.8699 34.1019 15.5147 34.348C15.337 34.471 15.1961 34.5657 15.0981 34.6306C15.0491 34.663 15.0107 34.688 14.9838 34.7054L14.9522 34.7258L14.943 34.7317L14.94 34.7336C14.9396 34.7339 14.9383 34.7347 14.2532 33.6554ZM14.2532 33.6554L14.9383 34.7347L14.2442 35.1753L13.5547 34.7261L14.2532 33.6554Z" fill="url(#paint1_linear_2001_251)"/>
<path d="M11.2938 15.8532C11.2938 14.2174 12.619 12.8922 14.2548 12.8922C15.8886 12.8922 17.2141 14.2171 17.2141 15.8532C17.2141 17.4872 15.8889 18.8125 14.2548 18.8125C12.6187 18.8125 11.2938 17.4869 11.2938 15.8532Z" fill="url(#paint2_linear_2001_251)"/>
<defs>
<linearGradient id="paint0_linear_2001_251" x1="30.8185" y1="0.841981" x2="-3.3063" y2="4.84799" gradientUnits="userSpaceOnUse">
<stop offset="0.0155367" stop-color="#19FB9B"/>
<stop offset="1" stop-color="#6CC0E6"/>
</linearGradient>
<linearGradient id="paint1_linear_2001_251" x1="30.8185" y1="0.841981" x2="-3.3063" y2="4.84799" gradientUnits="userSpaceOnUse">
<stop offset="0.0155367" stop-color="#19FB9B"/>
<stop offset="1" stop-color="#6CC0E6"/>
</linearGradient>
<linearGradient id="paint2_linear_2001_251" x1="30.8185" y1="0.841981" x2="-3.3063" y2="4.84799" gradientUnits="userSpaceOnUse">
<stop offset="0.0155367" stop-color="#19FB9B"/>
<stop offset="1" stop-color="#6CC0E6"/>
</linearGradient>
</defs>
</svg>
