<svg width="76" height="88" viewBox="0 0 76 88" fill="none" xmlns="http://www.w3.org/2000/svg">
<path d="M50.5569 21.3839L33.2169 37.7252L24.5469 29.5545M22.8122 56.0877H53.1572M22.8122 68.3387H37.9847M68.3298 3H7.63969C6.48998 3 5.38735 3.43024 4.57438 4.19608C3.76141 4.96192 3.30469 6.00061 3.30469 7.08367V80.5897C3.30469 81.6728 3.76141 82.7115 4.57438 83.4773C5.38735 84.2431 6.48998 84.6734 7.63969 84.6734H68.3298C69.4795 84.6734 70.5821 84.2431 71.3951 83.4773C72.208 82.7115 72.6648 81.6728 72.6648 80.5897V7.08367C72.6648 6.00061 72.208 4.96192 71.3951 4.19608C70.5821 3.43024 69.4795 3 68.3298 3Z" stroke="url(#paint0_linear_398_119)" stroke-width="5.43188" stroke-linecap="round" stroke-linejoin="round"/>
<defs>
<linearGradient id="paint0_linear_398_119" x1="79.0176" y1="3" x2="-5.41764" y2="13.3217" gradientUnits="userSpaceOnUse">
<stop offset="0.0155367" stop-color="#19FB9B"/>
<stop offset="1" stop-color="#6CC0E6"/>
</linearGradient>
</defs>
</svg>
