<svg width="53" height="72" viewBox="0 0 53 72" fill="none" xmlns="http://www.w3.org/2000/svg">
<path d="M5.88889 9.375C5.88889 7.74116 7.20716 6.41667 8.83333 6.41667H27.9722V22.6875C27.9722 24.3213 29.2905 25.6458 30.9167 25.6458H47.1111V62.625C47.1111 64.2588 45.7928 65.5833 44.1667 65.5833H8.83333C7.20716 65.5833 5.88889 64.2588 5.88889 62.625V9.375ZM42.947 19.7292H33.8611V10.6004L42.947 19.7292ZM8.83333 0.5C3.95482 0.5 0 4.47348 0 9.375V62.625C0 67.5265 3.95482 71.5 8.83333 71.5H44.1667C49.0452 71.5 53 67.5265 53 62.625V22.6875C53 21.9029 52.6898 21.1504 52.1376 20.5956L32.9987 1.36648C32.4465 0.811681 31.6976 0.5 30.9167 0.5H8.83333ZM14.7222 24.1667C13.0961 24.1667 11.7778 25.4912 11.7778 27.125C11.7778 28.7588 13.0961 30.0833 14.7222 30.0833H20.6111C22.2373 30.0833 23.5556 28.7588 23.5556 27.125C23.5556 25.4912 22.2373 24.1667 20.6111 24.1667H14.7222ZM11.7778 38.9583C11.7778 37.3245 13.0961 36 14.7222 36H35.3333C36.9595 36 38.2778 37.3245 38.2778 38.9583C38.2778 40.5922 36.9595 41.9167 35.3333 41.9167H14.7222C13.0961 41.9167 11.7778 40.5922 11.7778 38.9583ZM14.7222 47.8333C13.0961 47.8333 11.7778 49.1578 11.7778 50.7917C11.7778 52.4255 13.0961 53.75 14.7222 53.75H35.3333C36.9595 53.75 38.2778 52.4255 38.2778 50.7917C38.2778 49.1578 36.9595 47.8333 35.3333 47.8333H14.7222Z" fill="url(#paint0_linear_58_516)"/>
<defs>
<linearGradient id="paint0_linear_58_516" x1="57.8544" y1="0.500002" x2="-6.88169" y2="7.45605" gradientUnits="userSpaceOnUse">
<stop offset="0.0155367" stop-color="#19FB9B"/>
<stop offset="1" stop-color="#6CC0E6"/>
</linearGradient>
</defs>
</svg>
