<svg width="88" height="88" viewBox="0 0 88 88" fill="none" xmlns="http://www.w3.org/2000/svg">
<path d="M55.6325 30.2355C54.8106 28.8091 53.6164 27.6331 52.1778 26.8335C50.7392 26.034 49.1103 25.6408 47.4655 25.6962H38.3911C35.9844 25.6962 33.6763 26.6527 31.9745 28.3552C30.2727 30.0578 29.3166 32.3669 29.3166 34.7747C29.3166 37.1825 30.2727 39.4916 31.9745 41.1941C33.6763 42.8967 35.9844 43.8532 38.3911 43.8532H47.4655C49.8722 43.8532 52.1803 44.8096 53.8821 46.5122C55.5839 48.2147 56.54 50.5239 56.54 52.9316C56.54 55.3394 55.5839 57.6485 53.8821 59.3511C52.1803 61.0536 49.8722 62.0101 47.4655 62.0101H38.3911C36.7463 62.0655 35.1174 61.6724 33.6788 60.8728C32.2402 60.0732 31.046 58.8973 30.2241 57.4709M42.9283 21.157V66.5494M3 43.8367C3 49.1994 4.05623 54.5097 6.10838 59.4642C8.16053 64.4187 11.1684 68.9205 14.9603 72.7126C18.7522 76.5046 23.2538 79.5126 28.2081 81.5649C33.1624 83.6171 38.4725 84.6734 43.835 84.6734C49.1975 84.6734 54.5075 83.6171 59.4619 81.5649C64.4162 79.5126 68.9178 76.5046 72.7097 72.7126C76.5016 68.9205 79.5095 64.4187 81.5616 59.4642C83.6138 54.5097 84.67 49.1994 84.67 43.8367C84.67 38.4739 83.6138 33.1637 81.5616 28.2092C79.5095 23.2546 76.5016 18.7528 72.7097 14.9608C68.9178 11.1688 64.4162 8.16074 59.4619 6.10851C54.5075 4.05627 49.1975 3 43.835 3C38.4725 3 33.1624 4.05627 28.2081 6.10851C23.2538 8.16074 18.7522 11.1688 14.9603 14.9608C11.1684 18.7528 8.16053 23.2546 6.10838 28.2092C4.05623 33.1637 3 38.4739 3 43.8367Z" stroke="url(#paint0_linear_398_125)" stroke-width="5.43188" stroke-linecap="round" stroke-linejoin="round"/>
<defs>
<linearGradient id="paint0_linear_398_125" x1="92.1503" y1="3" x2="-6.70785" y2="17.2296" gradientUnits="userSpaceOnUse">
<stop offset="0.0155367" stop-color="#19FB9B"/>
<stop offset="1" stop-color="#6CC0E6"/>
</linearGradient>
</defs>
</svg>
