<svg width="45" height="29" viewBox="0 0 45 29" fill="none" xmlns="http://www.w3.org/2000/svg">
<path d="M20.5 4.67334H16C15.7239 4.67334 15.5 4.44948 15.5 4.17334V2.17334C15.5 1.8972 15.7239 1.67334 16 1.67334H28.5C28.7761 1.67334 29 1.8972 29 2.17334V4.17334C29 4.44948 28.7761 4.67334 28.5 4.67334H24M20.5 4.67334V7.17334M20.5 4.67334H24M24 4.67334V7.17334M36.5 16.6733V11.6733C36.5 11.3972 36.2761 11.1733 36 11.1733H33.5M36.5 16.6733H39C39.2761 16.6733 39.5 16.4495 39.5 16.1733V13.1733C39.5 12.8972 39.7239 12.6733 40 12.6733H41.2929C41.4255 12.6733 41.5527 12.726 41.6464 12.8198L43.3536 14.5269C43.4473 14.6207 43.5 14.7478 43.5 14.8804V24.4662C43.5 24.5988 43.4473 24.726 43.3536 24.8198L41.6464 26.5269C41.5527 26.6207 41.4255 26.6733 41.2929 26.6733H40C39.7239 26.6733 39.5 26.4495 39.5 26.1733V21.6733C39.5 21.3972 39.2761 21.1733 39 21.1733H36.5M36.5 16.6733V21.1733M36.5 21.1733V27.1733C36.5 27.4495 36.2761 27.6733 36 27.6733H33.5M33.5 11.1733H31.75C31.5926 11.1733 31.4444 11.0992 31.35 10.9733L28.65 7.37334C28.5556 7.24744 28.4074 7.17334 28.25 7.17334H16.25C16.0926 7.17334 15.9444 7.24744 15.85 7.37334L13.15 10.9733C13.0556 11.0992 12.9074 11.1733 12.75 11.1733H9C8.72386 11.1733 8.5 11.3972 8.5 11.6733V15.6733M33.5 11.1733V27.6733M33.5 27.6733H16.25C16.0926 27.6733 15.9444 27.5992 15.85 27.4733L13.15 23.8733C13.0556 23.7474 12.9074 23.6733 12.75 23.6733H9C8.72386 23.6733 8.5 23.4495 8.5 23.1733V18.6733M8.5 15.6733H5.5M8.5 15.6733V18.6733M5.5 15.6733V11.6733C5.5 11.3972 5.27614 11.1733 5 11.1733H3.24031C3.08842 11.1733 2.94476 11.2424 2.84988 11.361L1.10957 13.5364C1.03864 13.625 1 13.7352 1 13.8487V15.5067C1 15.6149 1.03509 15.7201 1.1 15.8067L2.4 17.54C2.46491 17.6266 2.5 17.7318 2.5 17.84V23.1733C2.5 23.4495 2.72386 23.6733 3 23.6733H5C5.27614 23.6733 5.5 23.4495 5.5 23.1733V18.6733M5.5 15.6733V18.6733M5.5 18.6733H8.5M20.4549 18.7149L20.1079 22.8781C20.0699 23.3344 20.6142 23.5976 20.9482 23.2844L27.0776 17.5381C27.4083 17.2281 27.1889 16.6733 26.7356 16.6733H24.0991C23.7872 16.6733 23.5514 16.3908 23.6072 16.0839L24.2301 12.6578C24.3162 12.1841 23.7489 11.8743 23.397 12.2028L17.9274 17.3078C17.5956 17.6175 17.8147 18.1733 18.2685 18.1733H19.9566C20.2491 18.1733 20.4792 18.4234 20.4549 18.7149Z" stroke="#9E9E9E" stroke-width="1.5" stroke-linejoin="round"/>
</svg>
