<svg width="45" height="36" viewBox="0 0 45 36" fill="none" xmlns="http://www.w3.org/2000/svg">
<path d="M29.5 7.6998H3.20711C3.0745 7.6998 2.94732 7.75248 2.85355 7.84625L1.14645 9.55336C1.05268 9.64713 1 9.7743 1 9.90691V32.0484C1 32.1471 1.02922 32.2436 1.08397 32.3258L2.85157 34.9772C2.9443 35.1163 3.10042 35.1998 3.26759 35.1998H41.2597C41.4116 35.1998 41.5552 35.1308 41.6501 35.0122L43.3904 32.8368C43.4614 32.7481 43.5 32.6379 43.5 32.5244V7.6998M29.5 7.6998C29.8333 5.86647 31.7 2.0998 36.5 1.6998C41.3 1.2998 43.1667 5.53314 43.5 7.6998M29.5 7.6998C29.6441 8.63657 30.0749 9.97836 30.9054 11.1998M43.5 7.6998C42.6506 12.7965 41.8011 13.203 38.5 13.8229M33.5 6.19983V7.94982M33.5 9.69981V7.94982M36.5 6.19983V7.94982M36.5 9.69981V7.94982M39.5 6.19983V7.94982M39.5 9.69981V7.94982M39.5 7.94982H36.5M36.5 7.94982H33.5M30.9054 11.1998C31.4178 11.9534 32.0823 12.6612 32.9256 13.1998M30.9054 11.1998L24 17.2901M32.9256 13.1998C33.3128 13.4471 33.7377 13.6588 34.2028 13.8229M32.9256 13.1998L26.7128 19.1998M20.5 25.1998V29.4927C20.5 29.6253 20.5527 29.7525 20.6464 29.8463L21.6934 30.8932C21.8693 31.0691 22.1479 31.0889 22.3469 30.9396L23.8 29.8498C23.9259 29.7554 24 29.6072 24 29.4498V24.1998C24 23.9237 24.2239 23.6998 24.5 23.6998H33.5C33.7761 23.6998 34 23.9237 34 24.1998V29.4167C34 29.5924 34.0921 29.7551 34.2428 29.8455L36.2117 31.0269C36.386 31.1314 36.6063 31.1201 36.769 30.9981L38.3 29.8498C38.4259 29.7554 38.5 29.6072 38.5 29.4498V13.8229M20.5 25.1998L26.7128 19.1998M20.5 25.1998V24.1998C20.5 23.9237 20.2761 23.6998 20 23.6998H19M38.5 13.8229C37.9275 13.9303 37.2813 14.0442 36.5486 14.1901C36.5163 14.1966 36.4834 14.1999 36.4504 14.1997C35.614 14.1945 34.8673 14.0572 34.2028 13.8229M34.2028 13.8229L34.0181 18.7187C34.008 18.9873 33.7873 19.1998 33.5185 19.1998H26.7128M24 17.2901L19.1693 21.5505C19.0617 21.6455 19 21.782 19 21.9255V23.6998M24 17.2901C24 16.1134 24 14.3272 24 13.4062C24 13.2736 23.9473 13.1472 23.8536 13.0534L22.3536 11.5534C22.1583 11.3581 21.8417 11.3581 21.6464 11.5534L20.1464 13.0534C20.0527 13.1472 20 13.2743 20 13.4069V18.6998C20 18.976 19.7761 19.1998 19.5 19.1998H10.5C10.2239 19.1998 10 18.976 10 18.6998V13.4069C10 13.2743 9.94732 13.1472 9.85355 13.0534L8.31645 11.5163C8.13629 11.3361 7.84949 11.3202 7.65054 11.4794L5.68765 13.0497C5.56904 13.1446 5.5 13.2882 5.5 13.4401V29.4167C5.5 29.5924 5.59215 29.7551 5.74275 29.8455L7.71171 31.0269C7.88603 31.1314 8.10633 31.1201 8.26896 30.9981L9.8 29.8498C9.9259 29.7554 10 29.6072 10 29.4498V24.1998C10 23.9237 10.2239 23.6998 10.5 23.6998H19" stroke="#9E9E9E" stroke-width="1.5" stroke-linejoin="round"/>
</svg>
