<svg width="78" height="72" viewBox="0 0 78 72" fill="none" xmlns="http://www.w3.org/2000/svg">
<path d="M10.9471 27.1772C11.6374 24.8686 12.8288 21.8134 14.8238 18.7809C18.731 12.8417 25.8018 6.81111 38.9999 6.81111C52.1981 6.81111 59.2689 12.8417 63.1762 18.7809C65.1712 21.8134 66.3625 24.8686 67.0529 27.1772L67.0959 27.3222H62.801C58.9934 18.0707 49.7716 11.5444 39 11.5444C28.2284 11.5444 19.0066 18.0707 15.199 27.3222H10.9041L10.9471 27.1772ZM74.2051 29.6575C74.1687 29.4263 74.1149 29.1122 74.0391 28.7264C73.8783 27.9081 73.6171 26.7619 73.2088 25.3964C72.3953 22.6759 70.9799 19.0255 68.5634 15.3524C63.6478 7.88049 54.6768 0.5 38.9999 0.5C23.323 0.5 14.3521 7.88049 9.43653 15.3524C7.02009 19.0255 5.60468 22.6759 4.79115 25.3964C4.38283 26.7619 4.12169 27.9081 3.96088 28.7265C3.88508 29.1122 3.83134 29.4263 3.79487 29.6575C1.77559 31.3928 0.5 33.9443 0.5 36.7889V43.1C0.5 48.3283 4.80926 52.5667 10.125 52.5667H14.1419C16.9912 63.4548 27.0404 71.5 39 71.5C50.9596 71.5 61.0088 63.4548 63.8581 52.5667H67.875C73.1907 52.5667 77.5 48.3283 77.5 43.1V36.7889C77.5 33.9443 76.2244 31.3928 74.2051 29.6575ZM64.6669 46.2556L64.6667 46.2161V36.7889C64.6667 35.7202 64.5992 34.6671 64.4681 33.6333H67.875C69.6469 33.6333 71.0833 35.0461 71.0833 36.7889V43.1C71.0833 44.8428 69.6469 46.2556 67.875 46.2556H64.6669ZM58.25 36.7889V44.5666C55.4852 46.2333 50.5028 48.5431 44.6305 49.5373C43.5404 47.5816 41.4277 46.2556 39 46.2556C35.4562 46.2556 32.5833 49.0811 32.5833 52.5667C32.5833 56.0522 35.4562 58.8778 39 58.8778C41.2749 58.8778 43.2732 57.7135 44.4127 55.9577C49.3604 55.2769 53.8092 53.7683 57.2836 52.1956C54.7504 59.7425 47.5219 65.1889 39 65.1889C28.3685 65.1889 19.75 56.7121 19.75 46.2556V36.7889C19.75 34.714 20.0893 32.7171 20.7164 30.8488C23.2496 23.302 30.4781 17.8556 39 17.8556C47.5212 17.8556 54.7492 23.3011 57.283 30.847C57.9104 32.7158 58.25 34.7133 58.25 36.7889ZM10.125 33.6333H13.5319C13.4008 34.6671 13.3333 35.7202 13.3333 36.7889V46.2556H10.125C8.35309 46.2556 6.91667 44.8428 6.91667 43.1V36.7889C6.91667 35.0461 8.35309 33.6333 10.125 33.6333Z" fill="url(#paint0_linear_232_103)"/>
<defs>
<linearGradient id="paint0_linear_232_103" x1="84.5526" y1="0.500002" x2="-8.32048" y2="14.9984" gradientUnits="userSpaceOnUse">
<stop offset="0.0155367" stop-color="#19FB9B"/>
<stop offset="1" stop-color="#6CC0E6"/>
</linearGradient>
</defs>
</svg>
