<svg width="43" height="40" viewBox="0 0 43 40" fill="none" xmlns="http://www.w3.org/2000/svg">
<path d="M27.8508 3.67334L25.1 13.1048C25.0868 13.1503 25.08 13.1974 25.08 13.2448V14.9276M27.8508 3.67334L28.475 1.53334C28.5372 1.32001 28.7328 1.17334 28.955 1.17334H38.2095C38.4296 1.17334 38.6238 1.31723 38.6879 1.52776L39.3409 3.67334M27.8508 3.67334V14.9276M27.8508 3.67334H31.08M39.3409 3.67334L42.0584 12.6022C42.0727 12.6494 42.08 12.6984 42.08 12.7477V14.9276M39.3409 3.67334V14.9276M39.3409 3.67334H36.4605M39.3409 14.9276H42.08M39.3409 14.9276H36.4605M27.8508 14.9276H25.08M27.8508 14.9276H31.08M42.08 14.9276V18.1733C42.08 18.4495 41.8562 18.6733 41.58 18.6733H39.2702M25.08 14.9276V18.1733C25.08 18.4495 25.3039 18.6733 25.58 18.6733H27.8508M31.08 3.67334V14.9276M31.08 3.67334H33.58M31.08 14.9276H33.58M31.08 14.9276V18.6733M33.58 3.67334V14.9276M33.58 3.67334H36.4605M33.58 14.9276H36.4605M36.4605 3.67334V14.9276M36.4605 14.9276V18.6733M31.08 18.6733H32.08M31.08 18.6733H27.8508M36.4605 18.6733H35.08M36.4605 18.6733H39.2702M32.08 18.6733V21.6733M32.08 18.6733H35.08M32.08 21.6733L32.4661 22.8315C32.5341 23.0356 32.7252 23.1733 32.9404 23.1733H34.2196C34.4349 23.1733 34.6259 23.0356 34.694 22.8315L35.08 21.6733M32.08 21.6733H29.58M35.08 21.6733V18.6733M35.08 21.6733H38.08M39.2702 18.6733V21.1733C39.2702 21.4495 39.0464 21.6733 38.7702 21.6733H38.08M27.8508 18.6733V21.1733C27.8508 21.4495 28.0747 21.6733 28.3508 21.6733H29.58M29.58 21.6733V31.1733M29.58 31.1733L34.58 36.6733M29.58 31.1733H22.08C21.8039 31.1733 21.58 31.3972 21.58 31.6733V32.1733M34.58 36.6733L37.9896 31.8025C38.0485 31.7184 38.08 31.6183 38.08 31.5157V21.6733M34.58 36.6733L30.7016 39.0973C30.6222 39.147 30.5303 39.1733 30.4366 39.1733H22.08C21.8039 39.1733 21.58 38.9495 21.58 38.6733V38.1733M21.58 32.1733H15.08C14.8039 32.1733 14.58 32.3972 14.58 32.6733V34.4233M21.58 32.1733V38.1733M21.58 38.1733H15.08C14.8039 38.1733 14.58 37.9495 14.58 37.6733V36.6733M14.58 36.6733H6.63696C6.59912 36.6733 6.56252 36.6694 6.52574 36.6605C4.34848 36.135 0.49329 33.8302 2.08002 28.6733M14.58 36.6733V34.4233M14.58 34.4233H9.52964C9.39681 34.4233 9.26943 34.3705 9.17562 34.2764L7.25953 32.3552C7.14567 32.2411 7.09385 32.079 7.12036 31.9199L7.55178 29.3314C7.56892 29.2286 7.61774 29.1337 7.69143 29.06L9.43168 27.3198C9.52545 27.226 9.65262 27.1733 9.78523 27.1733H16.5426C16.5663 27.1733 16.5891 27.1719 16.6125 27.1682C17.7899 26.9825 20.0781 25.7383 20.0781 22.1733C20.0781 18.6401 17.8306 17.0655 16.6442 16.6932C16.5999 16.6793 16.5546 16.6733 16.5081 16.6733H8.28523C8.15262 16.6733 8.02545 16.726 7.93168 16.8198L5.12547 19.626C5.09405 19.6574 5.06715 19.6921 5.04584 19.7311C4.39516 20.9216 3.92997 23.3863 7.07812 24.1733C10.2781 24.9733 10.7448 21.84 10.5781 20.1733M14.0781 18.6733C15.2448 18.84 17.5781 19.7733 17.5781 22.1733C17.5781 24.5733 15.5781 25.1733 14.5781 25.1733" stroke="#9E9E9E" stroke-width="1.5" stroke-linejoin="round"/>
</svg>
