<svg width="30" height="30" viewBox="0 0 30 30" fill="none" xmlns="http://www.w3.org/2000/svg">
<path fill-rule="evenodd" clip-rule="evenodd" d="M15 30C23.2843 30 30 23.2843 30 15C30 6.71573 23.2843 0 15 0C6.71573 0 0 6.71573 0 15C0 23.2843 6.71573 30 15 30ZM15 8.44578H18.2771C18.9289 8.44578 19.3052 8.58352 19.5807 8.68436L19.5807 8.68438L19.5809 8.68442C19.6312 8.70285 19.6782 8.72005 19.7229 8.73494C19.8034 8.77517 19.8796 8.81121 19.9526 8.84567C20.2291 8.97634 20.4579 9.08445 20.6867 9.31325C20.9759 9.60241 21.1687 9.89157 21.2651 10.2771C21.3614 10.5663 21.4578 10.9518 21.5542 11.7229V15V18.2771C21.5542 18.9289 21.4165 19.3052 21.3156 19.5807L21.3156 19.5807C21.2972 19.6311 21.28 19.6782 21.2651 19.7229C21.2248 19.8034 21.1888 19.8796 21.1543 19.9526C21.0237 20.2291 20.9156 20.4579 20.6867 20.6867C20.3976 20.9759 20.1084 21.1687 19.7229 21.2651C19.4337 21.3614 19.0482 21.4578 18.2771 21.5542H15H11.7229C11.0711 21.5542 10.6948 21.4165 10.4193 21.3156C10.3689 21.2972 10.3218 21.28 10.2771 21.2651C10.1966 21.2248 10.1204 21.1888 10.0474 21.1543C9.77086 21.0237 9.54206 20.9156 9.31325 20.6867C9.0241 20.3976 8.83133 20.1084 8.73494 19.7229C8.63855 19.4337 8.54217 19.0482 8.44578 18.2771V15V11.7229C8.44578 11.0711 8.58352 10.6948 8.68436 10.4193L8.68436 10.4193L8.68436 10.4193C8.70282 10.3689 8.72003 10.3218 8.73494 10.2771C8.77512 10.1967 8.81112 10.1206 8.84555 10.0477L8.84565 10.0475L8.84567 10.0474C8.97634 9.77087 9.08445 9.54206 9.31325 9.31325C9.60241 9.0241 9.89157 8.83133 10.2771 8.73494C10.5663 8.63855 10.9518 8.54217 11.7229 8.44578H15ZM15 7H11.7229C10.8554 7 10.2771 7.19277 9.79518 7.38554C9.31325 7.57831 8.83133 7.86747 8.3494 8.3494C7.86747 8.83133 7.6747 9.21687 7.38554 9.79518C7.19277 10.2771 7.09639 10.8554 7 11.7229V15V18.2771C7 19.1446 7.19277 19.7229 7.38554 20.2048C7.57831 20.6867 7.86747 21.1687 8.3494 21.6506C8.83133 22.1325 9.21687 22.3253 9.79518 22.6145C10.2771 22.8072 10.8554 22.9036 11.7229 23H15H18.2771C19.1446 23 19.7229 22.8072 20.2048 22.6145C20.6867 22.4217 21.1687 22.1325 21.6506 21.6506C22.1325 21.1687 22.3253 20.7831 22.6145 20.2048C22.8072 19.7229 22.9036 19.1446 23 18.2771V15V11.7229C23 10.8554 22.8072 10.2771 22.6145 9.79518C22.4217 9.31325 22.1325 8.83133 21.6506 8.3494C21.1687 7.86747 20.7831 7.6747 20.2048 7.38554C19.7229 7.19277 19.1446 7.09639 18.2771 7H15ZM15 10.8554C12.6867 10.8554 10.8554 12.6867 10.8554 15C10.8554 17.3133 12.6867 19.1446 15 19.1446C17.3133 19.1446 19.1446 17.3133 19.1446 15C19.1446 12.6867 17.3133 10.8554 15 10.8554ZM15 17.6988C13.5542 17.6988 12.3012 16.5422 12.3012 15C12.3012 13.5542 13.4578 12.3012 15 12.3012C16.4458 12.3012 17.6988 13.4578 17.6988 15C17.6988 16.4458 16.4458 17.6988 15 17.6988ZM20.2048 10.759C20.2048 11.2914 19.7733 11.7229 19.241 11.7229C18.7086 11.7229 18.2771 11.2914 18.2771 10.759C18.2771 10.2267 18.7086 9.79518 19.241 9.79518C19.7733 9.79518 20.2048 10.2267 20.2048 10.759Z" fill="#707070"/>
</svg>
