<svg width="51" height="51" viewBox="0 0 51 51" fill="none" xmlns="http://www.w3.org/2000/svg">
<path d="M0.246094 25.4922C0.246094 39.2993 11.439 50.4922 25.2461 50.4922C39.0532 50.4922 50.2461 39.2993 50.2461 25.4922C50.2461 11.6851 39.0532 0.492188 25.2461 0.492188C11.439 0.492188 0.246094 11.6851 0.246094 25.4922Z" fill="url(#paint0_linear_232_417)"/>
<path d="M25.2461 14.8672C28.6836 14.8672 29.1523 14.8672 30.5586 14.8672C31.8086 14.8672 32.4336 15.1797 32.9023 15.3359C33.5273 15.6484 33.9961 15.8047 34.4648 16.2734C34.9336 16.7422 35.2461 17.2109 35.4023 17.8359C35.5586 18.3047 35.7148 18.9297 35.8711 20.1797C35.8711 21.5859 35.8711 21.8984 35.8711 25.4922C35.8711 29.0859 35.8711 29.3984 35.8711 30.8047C35.8711 32.0547 35.5586 32.6797 35.4023 33.1484C35.0898 33.7734 34.9336 34.2422 34.4648 34.7109C33.9961 35.1797 33.5273 35.4922 32.9023 35.6484C32.4336 35.8047 31.8086 35.9609 30.5586 36.1172C29.1523 36.1172 28.8398 36.1172 25.2461 36.1172C21.6523 36.1172 21.3398 36.1172 19.9336 36.1172C18.6836 36.1172 18.0586 35.8047 17.5898 35.6484C16.9648 35.3359 16.4961 35.1797 16.0273 34.7109C15.5586 34.2422 15.2461 33.7734 15.0898 33.1484C14.9336 32.6797 14.7773 32.0547 14.6211 30.8047C14.6211 29.3984 14.6211 29.0859 14.6211 25.4922C14.6211 21.8984 14.6211 21.5859 14.6211 20.1797C14.6211 18.9297 14.9336 18.3047 15.0898 17.8359C15.4023 17.2109 15.5586 16.7422 16.0273 16.2734C16.4961 15.8047 16.9648 15.4922 17.5898 15.3359C18.0586 15.1797 18.6836 15.0234 19.9336 14.8672C21.3398 14.8672 21.8086 14.8672 25.2461 14.8672ZM25.2461 12.5234C21.6523 12.5234 21.3398 12.5234 19.9336 12.5234C18.5273 12.5234 17.5898 12.8359 16.8086 13.1484C16.0273 13.4609 15.2461 13.9297 14.4648 14.7109C13.6836 15.4922 13.3711 16.1172 12.9023 17.0547C12.5898 17.8359 12.4336 18.7734 12.2773 20.1797C12.2773 21.5859 12.2773 22.0547 12.2773 25.4922C12.2773 29.0859 12.2773 29.3984 12.2773 30.8047C12.2773 32.2109 12.5898 33.1484 12.9023 33.9297C13.2148 34.7109 13.6836 35.4922 14.4648 36.2734C15.2461 37.0547 15.8711 37.3672 16.8086 37.8359C17.5898 38.1484 18.5273 38.3047 19.9336 38.4609C21.3398 38.4609 21.8086 38.4609 25.2461 38.4609C28.6836 38.4609 29.1523 38.4609 30.5586 38.4609C31.9648 38.4609 32.9023 38.1484 33.6836 37.8359C34.4648 37.5234 35.2461 37.0547 36.0273 36.2734C36.8086 35.4922 37.1211 34.8672 37.5898 33.9297C37.9023 33.1484 38.0586 32.2109 38.2148 30.8047C38.2148 29.3984 38.2148 28.9297 38.2148 25.4922C38.2148 22.0547 38.2148 21.5859 38.2148 20.1797C38.2148 18.7734 37.9023 17.8359 37.5898 17.0547C37.2773 16.2734 36.8086 15.4922 36.0273 14.7109C35.2461 13.9297 34.6211 13.6172 33.6836 13.1484C32.9023 12.8359 31.9648 12.6797 30.5586 12.5234C29.1523 12.5234 28.8398 12.5234 25.2461 12.5234Z" fill="white"/>
<path d="M25.2461 18.7734C21.4961 18.7734 18.5273 21.7422 18.5273 25.4922C18.5273 29.2422 21.4961 32.2109 25.2461 32.2109C28.9961 32.2109 31.9648 29.2422 31.9648 25.4922C31.9648 21.7422 28.9961 18.7734 25.2461 18.7734ZM25.2461 29.8672C22.9023 29.8672 20.8711 27.9922 20.8711 25.4922C20.8711 23.1484 22.7461 21.1172 25.2461 21.1172C27.5898 21.1172 29.6211 22.9922 29.6211 25.4922C29.6211 27.8359 27.5898 29.8672 25.2461 29.8672Z" fill="white"/>
<defs>
<linearGradient id="paint0_linear_232_417" x1="0.246094" y1="25.4922" x2="50.2461" y2="25.4922" gradientUnits="userSpaceOnUse">
<stop stop-color="#FFC073"/>
<stop offset="1" stop-color="#D56AF0"/>
</linearGradient>
</defs>
</svg>
