<svg width="17" height="16" viewBox="0 0 17 16" fill="none" xmlns="http://www.w3.org/2000/svg">
<path fill-rule="evenodd" clip-rule="evenodd" d="M5.14443 3.53697C6.03704 2.76232 7.11223 2.375 8.37 2.375C9.62778 2.375 10.6979 2.75792 11.5804 3.52377C12.4628 4.28962 12.9041 5.2183 12.9041 6.30986C12.9041 6.85564 12.7469 7.48063 12.4324 8.18486C12.118 8.88909 11.7376 9.54929 11.2913 10.1655C10.845 10.7817 10.4037 11.3583 9.96758 11.8952C9.53141 12.4322 9.16119 12.8592 8.85688 13.1761L8.37 13.625C8.24828 13.5018 8.08599 13.3389 7.88312 13.1364C7.68026 12.934 7.3151 12.5291 6.78765 11.9217C6.26019 11.3143 5.79867 10.7245 5.40308 10.1523C5.00749 9.5801 4.64741 8.9331 4.32282 8.21127C3.99823 7.48943 3.83594 6.85564 3.83594 6.30986C3.83594 5.2183 4.2721 4.29402 5.14443 3.53697Z" stroke="#777777" stroke-linecap="round" stroke-linejoin="round"/>
</svg>
