<svg width="85" height="85" viewBox="0 0 85 85" fill="none" xmlns="http://www.w3.org/2000/svg">
<g clip-path="url(#clip0_607_1758)">
<path fill-rule="evenodd" clip-rule="evenodd" d="M85 42.5C85 65.9721 65.9721 85 42.5 85C19.0279 85 0 65.9721 0 42.5C0 19.0279 19.0279 0 42.5 0C65.9721 0 85 19.0279 85 42.5ZM28.46 38.6068C24.2026 40.4657 19.8282 42.3756 15.8282 44.5789C13.7395 46.1081 16.5155 47.1901 19.1198 48.2047C19.5338 48.366 19.9435 48.5256 20.3286 48.6851C20.6491 48.7836 20.975 48.8874 21.3052 48.9926C24.2017 49.9154 27.4315 50.9444 30.2435 49.3965C34.8628 46.743 39.2222 43.6751 43.5782 40.6096C45.0053 39.6052 46.4321 38.6011 47.8676 37.6119C47.9348 37.5689 48.0107 37.5197 48.0936 37.466C49.3166 36.6732 52.0667 34.8906 51.0495 37.347C48.6438 39.9777 46.0672 42.3065 43.4765 44.648C41.7306 46.226 39.9782 47.8098 38.2676 49.4956C36.7776 50.7061 35.2306 53.1406 36.8989 54.8357C40.7414 57.5257 44.644 60.1505 48.5442 62.7737C49.8135 63.6274 51.0825 64.4809 52.3491 65.3364C54.4957 67.0503 57.8505 65.664 58.3224 62.9858C58.5323 61.7538 58.7431 60.5218 58.9538 59.2897C60.1183 52.4815 61.2831 45.6709 62.3121 38.8405C62.452 37.7691 62.6105 36.6978 62.7691 35.6258C63.1536 33.0278 63.5385 30.4266 63.6587 27.8146C63.3488 25.2081 60.1884 25.7812 58.4294 26.3673C49.389 29.8073 40.4388 33.5023 31.5241 37.2625C30.5142 37.7099 29.4906 38.1569 28.46 38.6068Z" fill="white"/>
</g>
<defs>
<clipPath id="clip0_607_1758">
<rect width="85" height="85" fill="white"/>
</clipPath>
</defs>
</svg>
