<svg width="85" height="85" viewBox="0 0 85 85" fill="none" xmlns="http://www.w3.org/2000/svg">
<g clip-path="url(#clip0_607_1763)">
<g filter="url(#filter0_d_607_1763)">
<path fill-rule="evenodd" clip-rule="evenodd" d="M0 42.5C0 65.9721 19.0279 85 42.5 85C65.9721 85 85 65.9721 85 42.5C85 19.0279 65.9721 0 42.5 0C19.0279 0 0 19.0279 0 42.5ZM69.1725 40.8735C69.167 54.8042 57.8345 66.1394 43.9009 66.1451H43.8904C39.6608 66.1436 35.5049 65.0824 31.8136 63.069L18.4167 66.5833L22.0019 53.4877C19.7904 49.6551 18.6266 45.3076 18.6285 40.8536C18.6341 26.9197 29.971 15.5833 43.9006 15.5833C50.6611 15.5863 57.0063 18.2181 61.7777 22.995C66.549 27.7717 69.1752 34.121 69.1725 40.8735Z" fill="white"/>
</g>
<path fill-rule="evenodd" clip-rule="evenodd" d="M24.4835 60.5794L32.4335 58.494L33.2005 58.9492C36.4255 60.863 40.1223 61.8756 43.8915 61.8771H43.9C55.4773 61.8771 64.9 52.4541 64.9046 40.872C64.9068 35.2594 62.7241 29.9821 58.7583 26.0117C54.7926 22.0414 49.5187 19.8538 43.9082 19.8518C32.322 19.8518 22.8991 29.2738 22.8945 40.855C22.8929 44.824 24.0034 48.6893 26.106 52.0335L26.6055 52.8282L24.4835 60.5794ZM55.7669 46.3145C56.2073 46.5273 56.5047 46.6711 56.6317 46.883C56.7895 47.1463 56.7895 48.4106 56.2636 49.8859C55.7372 51.3608 53.2145 52.7071 52.0012 52.8883C50.9134 53.0509 49.5367 53.1188 48.024 52.6381C47.1069 52.3471 45.9308 51.9586 44.4242 51.3079C38.5044 48.7518 34.5038 43.0142 33.7477 41.9298C33.6948 41.8539 33.6577 41.8007 33.6371 41.7731L33.632 41.7663C33.2978 41.3205 31.0587 38.3329 31.0587 35.2409C31.0587 32.3323 32.4874 30.8077 33.1451 30.106C33.1902 30.0579 33.2316 30.0137 33.2687 29.9731C33.8475 29.3409 34.5317 29.1829 34.9526 29.1829C35.3735 29.1829 35.7949 29.1868 36.1629 29.2053C36.2083 29.2075 36.2555 29.2073 36.3043 29.207C36.6723 29.2048 37.131 29.2021 37.5836 30.2892C37.7577 30.7076 38.0125 31.3279 38.2812 31.982C38.8245 33.3048 39.4249 34.7664 39.5305 34.9779C39.6884 35.294 39.7936 35.6626 39.5831 36.0842C39.5515 36.1474 39.5223 36.207 39.4944 36.264C39.3363 36.5868 39.22 36.8242 38.9517 37.1375C38.8462 37.2607 38.7371 37.3935 38.6281 37.5263C38.4109 37.7909 38.1936 38.0554 38.0045 38.2438C37.6884 38.5587 37.3593 38.9003 37.7276 39.5325C38.096 40.1647 39.3633 42.2324 41.2405 43.9069C43.2584 45.7068 45.0122 46.4675 45.9012 46.8531C46.0748 46.9284 46.2154 46.9894 46.3186 47.0411C46.9498 47.3573 47.3182 47.3043 47.6865 46.883C48.0549 46.4616 49.2651 45.0391 49.6859 44.4071C50.1068 43.7751 50.528 43.8804 51.1067 44.091C51.6856 44.3019 54.7901 45.8294 55.4216 46.1454C55.5448 46.2071 55.6601 46.2628 55.7669 46.3145Z" fill="white"/>
</g>
<defs>
<filter id="filter0_d_607_1763" x="-4" y="0" width="93" height="93" filterUnits="userSpaceOnUse" color-interpolation-filters="sRGB">
<feFlood flood-opacity="0" result="BackgroundImageFix"/>
<feColorMatrix in="SourceAlpha" type="matrix" values="0 0 0 0 0 0 0 0 0 0 0 0 0 0 0 0 0 0 127 0" result="hardAlpha"/>
<feOffset dy="4"/>
<feGaussianBlur stdDeviation="2"/>
<feComposite in2="hardAlpha" operator="out"/>
<feColorMatrix type="matrix" values="0 0 0 0 0 0 0 0 0 0 0 0 0 0 0 0 0 0 0.25 0"/>
<feBlend mode="normal" in2="BackgroundImageFix" result="effect1_dropShadow_607_1763"/>
<feBlend mode="normal" in="SourceGraphic" in2="effect1_dropShadow_607_1763" result="shape"/>
</filter>
<clipPath id="clip0_607_1763">
<rect width="85" height="85" fill="white"/>
</clipPath>
</defs>
</svg>
