<svg width="29" height="38" viewBox="0 0 29 38" fill="none" xmlns="http://www.w3.org/2000/svg">
<path fill-rule="evenodd" clip-rule="evenodd" d="M25.0184 14.1908C24.7072 13.2731 23.8361 12.6197 22.8095 12.6197H5.69835C4.67168 12.6197 3.81613 13.2731 3.48946 14.1908L0.253906 23.5086V35.9531C0.253906 36.8086 0.953906 37.5086 1.80946 37.5086H3.36502C4.22057 37.5086 4.92057 36.8086 4.92057 35.9531V34.3975H23.5872V35.9531C23.5872 36.8086 24.2872 37.5086 25.1428 37.5086H26.6984C27.5539 37.5086 28.2539 36.8086 28.2539 35.9531V23.5086L25.0184 14.1908ZM6.24279 15.7308H22.2495L23.8672 20.3975H4.62502L6.24279 15.7308ZM3.36502 31.2864V23.5086H25.1428V31.2864H3.36502ZM14.2539 10.0686L9.85168 5.68196L12.045 3.48863L14.2539 5.68196L19.7606 0.175293L21.9539 2.36863L14.2539 10.0686Z" fill="url(#paint0_linear_2001_252)"/>
<path fill-rule="evenodd" clip-rule="evenodd" d="M25.1428 31.2864H3.36502V23.5086H25.1428V31.2864ZM7.25391 25.0642C5.9628 25.0642 4.92057 26.1064 4.92057 27.3975C4.92057 28.6886 5.9628 29.7308 7.25391 29.7308C8.54502 29.7308 9.58724 28.6886 9.58724 27.3975C9.58724 26.1064 8.54502 25.0642 7.25391 25.0642ZM21.2539 25.0642C19.9628 25.0642 18.9206 26.1064 18.9206 27.3975C18.9206 28.6886 19.9628 29.7308 21.2539 29.7308C22.545 29.7308 23.5872 28.6886 23.5872 27.3975C23.5872 26.1064 22.545 25.0642 21.2539 25.0642Z" fill="url(#paint1_linear_2001_252)"/>
<defs>
<linearGradient id="paint0_linear_2001_252" x1="30.8185" y1="0.175294" x2="-3.37801" y2="3.86713" gradientUnits="userSpaceOnUse">
<stop offset="0.0155367" stop-color="#19FB9B"/>
<stop offset="1" stop-color="#6CC0E6"/>
</linearGradient>
<linearGradient id="paint1_linear_2001_252" x1="30.8185" y1="0.175294" x2="-3.37801" y2="3.86713" gradientUnits="userSpaceOnUse">
<stop offset="0.0155367" stop-color="#19FB9B"/>
<stop offset="1" stop-color="#6CC0E6"/>
</linearGradient>
</defs>
</svg>
