<svg width="36" height="29" viewBox="0 0 36 29" fill="none" xmlns="http://www.w3.org/2000/svg">
<path d="M19.8583 13.6164H31.0892V16.023H19.8583V13.6164ZM19.8583 9.60539H31.0892V12.012H19.8583V9.60539ZM19.8583 17.6274H31.0892V20.034H19.8583V17.6274ZM32.6936 0.781158H3.81428C2.04943 0.781158 0.605469 2.22512 0.605469 3.98997V24.8472C0.605469 26.6121 2.04943 28.056 3.81428 28.056H32.6936C34.4584 28.056 35.9024 26.6121 35.9024 24.8472V3.98997C35.9024 2.22512 34.4584 0.781158 32.6936 0.781158ZM32.6936 24.8472H18.2539V3.98997H32.6936V24.8472Z" fill="url(#paint0_linear_283_148)"/>
<defs>
<linearGradient id="paint0_linear_283_148" x1="39.1353" y1="0.781159" x2="-3.01278" y2="8.63262" gradientUnits="userSpaceOnUse">
<stop offset="0.0155367" stop-color="#19FB9B"/>
<stop offset="1" stop-color="#6CC0E6"/>
</linearGradient>
</defs>
</svg>
