<svg width="29" height="29" viewBox="0 0 29 29" fill="none" xmlns="http://www.w3.org/2000/svg">
<path d="M4.05188 28.5085V0.508545H16.1719C19.9052 0.508545 22.8652 1.29521 25.0519 2.86855C27.2385 4.44188 28.3319 6.80188 28.3319 9.94855C28.3319 13.0685 27.2385 15.4152 25.0519 16.9885C22.8652 18.5619 19.9052 19.3485 16.1719 19.3485H7.65188L10.5719 16.4685V28.5085H4.05188ZM10.5719 17.1485L7.65188 14.2685H16.1319C17.9185 14.2685 19.3052 13.9085 20.2919 13.1885C21.2785 12.4419 21.7719 11.3752 21.7719 9.98855C21.7719 8.62855 21.2785 7.58855 20.2919 6.86855C19.3052 6.14855 17.9185 5.78855 16.1319 5.78855H7.65188L10.5719 2.70855V17.1485ZM0.171875 24.9085V21.5885H19.2119V24.9085H0.171875Z" fill="url(#paint0_linear_2001_195)"/>
<defs>
<linearGradient id="paint0_linear_2001_195" x1="30.9111" y1="0.508546" x2="-3.16743" y2="5.44204" gradientUnits="userSpaceOnUse">
<stop offset="0.0155367" stop-color="#19FB9B"/>
<stop offset="1" stop-color="#6CC0E6"/>
</linearGradient>
</defs>
</svg>
