<svg width="13" height="14" viewBox="0 0 13 14" fill="none" xmlns="http://www.w3.org/2000/svg">
<path d="M5.28586 1.43581C5.55869 0.462285 6.93882 0.462287 7.21166 1.43581L7.88382 3.8342C8.00481 4.26592 8.39836 4.56434 8.84672 4.56434H11.3024C12.2351 4.56434 12.66 5.7283 11.9466 6.32916L9.71782 8.20656C9.41795 8.45916 9.29335 8.8637 9.39916 9.24124L10.1889 12.0592C10.4546 13.0071 9.33472 13.7281 8.58176 13.0938L6.893 11.6713C6.52074 11.3578 5.97678 11.3578 5.60452 11.6713L3.91576 13.0938C3.16279 13.7281 2.04295 13.0071 2.30862 12.0592L3.09835 9.24124C3.20416 8.8637 3.07957 8.45916 2.77969 8.20656L0.55089 6.32916C-0.162438 5.7283 0.262461 4.56434 1.19513 4.56434H3.6508C4.09915 4.56434 4.49271 4.26592 4.6137 3.8342L5.28586 1.43581Z" fill="#0FA8AD"/>
</svg>
