<svg width="71" height="69" viewBox="0 0 71 69" fill="none" xmlns="http://www.w3.org/2000/svg">
<path d="M29.9802 3.37085C32.3219 -1.12361 38.6781 -1.12362 41.0198 3.37085L48.989 18.6669L65.817 21.6155C70.7616 22.4819 72.7258 28.6037 69.2284 32.2478L57.3257 44.6499L59.7567 61.7683C60.471 66.7982 55.3287 70.5817 50.8255 68.3394L35.5 60.7082L20.1745 68.3394C15.6713 70.5817 10.529 66.7982 11.2433 61.7683L13.6743 44.6499L1.77158 32.2478C-1.7258 28.6037 0.238385 22.4819 5.18298 21.6155L22.011 18.6669L29.9802 3.37085ZM43.4693 21.6161L35.5 6.32003L27.5307 21.6161C26.6277 23.3493 24.9818 24.5603 23.075 24.8944L6.247 27.843L18.1497 40.2451C19.4984 41.6504 20.1271 43.6098 19.8516 45.5495L17.4207 62.6679L32.7462 55.0367C34.4828 54.172 36.5172 54.172 38.2538 55.0367L53.5793 62.6679L51.1484 45.5495C50.8729 43.6098 51.5016 41.6504 52.8503 40.2451L64.753 27.843L47.925 24.8944C46.0182 24.5603 44.3723 23.3493 43.4693 21.6161Z" fill="url(#paint0_linear_232_109)"/>
<defs>
<linearGradient id="paint0_linear_232_109" x1="77.503" y1="1.70842e-06" x2="-8.33691" y2="12.7145" gradientUnits="userSpaceOnUse">
<stop offset="0.0155367" stop-color="#19FB9B"/>
<stop offset="1" stop-color="#6CC0E6"/>
</linearGradient>
</defs>
</svg>
