<svg width="45" height="36" viewBox="0 0 45 36" fill="none" xmlns="http://www.w3.org/2000/svg">
<path d="M5.20703 8.17334H3.8737C3.76551 8.17334 3.66025 8.20843 3.5737 8.27334L1.90703 9.52334C1.78113 9.61777 1.70703 9.76596 1.70703 9.92334V33.4233C1.70703 33.5807 1.78113 33.7289 1.90703 33.8233L3.5737 35.0733C3.66025 35.1383 3.76551 35.1733 3.8737 35.1733H5.20703M5.20703 8.17334V35.1733M5.20703 8.17334H7.70703M5.20703 35.1733H7.70703M7.70703 8.17334V35.1733M7.70703 8.17334H11.207M7.70703 35.1733H11.207M11.207 8.17334V35.1733M11.207 8.17334H13.707M11.207 35.1733H13.707M13.707 8.17334H14.5404C14.6485 8.17334 14.7538 8.20843 14.8404 8.27334L16.5018 9.51941C16.6306 9.61604 16.705 9.76881 16.7017 9.92983L16.5612 16.6733M13.707 8.17334V35.1733M13.707 35.1733H14.4999C14.6325 35.1733 14.7597 35.1207 14.8535 35.0269L16.0649 33.8155C16.1561 33.7243 16.2085 33.6013 16.2112 33.4724L16.3529 26.6733M16.5612 16.6733H18.4999C18.6325 16.6733 18.7597 16.726 18.8535 16.8198L19.5606 17.5269C19.6544 17.6207 19.707 17.7478 19.707 17.8804C19.707 18.2673 19.707 18.706 19.707 19.1733M16.5612 16.6733L16.3529 26.6733M16.3529 26.6733H18.589C18.6666 26.6733 18.7434 26.6559 18.8113 26.6182C19.1622 26.4238 19.707 26.0349 19.707 25.6733C19.707 25.5255 19.707 24.7362 19.707 23.6733M19.707 19.1733C19.707 20.6274 19.707 22.3593 19.707 23.6733M19.707 19.1733H24.707M19.707 23.6733H24.707M24.707 19.1733V23.6733M24.707 19.1733H26.707M24.707 23.6733H31.207M31.207 19.1733V23.6733M31.207 19.1733H26.707M31.207 19.1733H33.707M31.207 23.6733H38.707C38.9832 23.6733 39.207 23.8972 39.207 24.1733V25.6733C39.207 25.9495 39.4309 26.1733 39.707 26.1733H43.207C43.4832 26.1733 43.707 25.9495 43.707 25.6733V17.1733C43.707 16.8972 43.4832 16.6733 43.207 16.6733H39.707C39.4309 16.6733 39.207 16.8972 39.207 17.1733V18.6733C39.207 18.9495 38.9832 19.1733 38.707 19.1733H33.707M26.707 19.1733L27.9775 17.0559C28.1083 16.8379 28.3818 16.7528 28.6132 16.8579L33.707 19.1733M33.707 19.1733L34.9216 17.1491C35.0742 16.8947 34.9731 16.5642 34.7043 16.4387L32.707 15.5067M27.707 16.6733L26.6037 15.9378C26.3816 15.7897 26.315 15.4934 26.4523 15.2645L27.4752 13.5597C27.6069 13.3402 27.8833 13.2556 28.1154 13.3639L30.207 14.34M30.207 14.34L31.207 12.1733M30.207 14.34L32.707 15.5067M31.207 12.1733L28.207 11.1733M31.207 12.1733L34.707 13.1733M32.707 15.5067L34.707 13.1733M34.707 13.1733H38.207M29.707 8.17334L35.1508 10.1529C35.1882 10.1665 35.227 10.1756 35.2665 10.1799L39.707 10.6733M30.707 5.67334L36.6568 7.65659C36.6902 7.66773 36.7247 7.6753 36.7597 7.67919L41.207 8.17334M32.707 3.67334L34.207 3.98913M34.207 3.98913L40.2 5.25081C40.7124 5.35869 41.0249 4.70616 40.6196 4.37455L37.0787 1.47744C36.8711 1.30754 36.5663 1.33182 36.3882 1.53245L34.207 3.98913Z" stroke="#9E9E9E" stroke-width="1.5" stroke-linejoin="round"/>
</svg>
