<svg width="51" height="51" viewBox="0 0 51 51" fill="none" xmlns="http://www.w3.org/2000/svg">
<path d="M0.359375 25.4922C0.359375 39.2993 11.5523 50.4922 25.3594 50.4922C39.1665 50.4922 50.3594 39.2993 50.3594 25.4922C50.3594 11.6851 39.1665 0.492188 25.3594 0.492188C11.5523 0.492188 0.359375 11.6851 0.359375 25.4922Z" fill="#0088CC"/>
<path d="M13.0155 25.0364C19.7264 22.1126 24.2013 20.185 26.4404 19.2537C32.8334 16.5947 34.1618 16.1328 35.0276 16.1173C35.218 16.1141 35.6438 16.1613 35.9196 16.3851C36.1525 16.5741 36.2166 16.8294 36.2473 17.0086C36.2779 17.1877 36.3161 17.5959 36.2858 17.9148C35.9393 21.5548 34.4403 30.3883 33.6777 34.4652C33.355 36.1903 32.7196 36.7687 32.1045 36.8253C30.7676 36.9483 29.7525 35.9418 28.4577 35.0931C26.4316 33.765 25.287 32.9382 23.3204 31.6422C21.0475 30.1444 22.5209 29.3212 23.8162 27.9759C24.1552 27.6238 30.0453 22.2663 30.1593 21.7803C30.1735 21.7196 30.1868 21.493 30.0522 21.3733C29.9176 21.2537 29.7189 21.2946 29.5755 21.3272C29.3723 21.3733 26.1356 23.5126 19.8655 27.7452C18.9467 28.376 18.1146 28.6834 17.369 28.6673C16.5471 28.6495 14.966 28.2026 13.7906 27.8205C12.3489 27.3519 11.2032 27.1041 11.3029 26.3082C11.3549 25.8937 11.9258 25.4698 13.0155 25.0364Z" fill="white"/>
</svg>
