<svg width="30" height="30" viewBox="0 0 30 30" fill="none" xmlns="http://www.w3.org/2000/svg">
<path fill-rule="evenodd" clip-rule="evenodd" d="M30 15C30 23.2843 23.2843 30 15 30C6.71573 30 0 23.2843 0 15C0 6.71573 6.71573 0 15 0C23.2843 0 30 6.71573 30 15ZM10.0435 13.6257C8.54087 14.2817 6.99696 14.9558 5.58519 15.7335L5.58509 15.7336C4.84792 16.2733 5.82777 16.6551 6.74695 17.0132C6.89308 17.0701 7.03767 17.1264 7.17359 17.1827C7.2867 17.2175 7.40173 17.2541 7.51828 17.2912C8.54057 17.6169 9.6805 17.9801 10.673 17.4338C12.3033 16.4973 13.8419 15.4145 15.3793 14.3325C15.883 13.9781 16.3866 13.6237 16.8932 13.2745C16.9169 13.2594 16.9437 13.242 16.973 13.223C17.4046 12.9432 18.3753 12.3141 18.0162 13.181C17.1672 14.1095 16.2578 14.9315 15.3434 15.7579C14.7272 16.3148 14.1088 16.8738 13.505 17.4688C12.9791 17.896 12.4331 18.7552 13.0219 19.3535C14.3781 20.303 15.7555 21.2294 17.1321 22.1552C17.58 22.4565 18.0279 22.7577 18.4749 23.0597C19.2326 23.6645 20.4166 23.1753 20.5832 22.23C20.6573 21.7952 20.7316 21.3603 20.806 20.9255C21.217 18.5226 21.6281 16.1189 21.9913 13.7082C22.0407 13.33 22.0966 12.9519 22.1526 12.5735C22.2883 11.6566 22.4242 10.7385 22.4666 9.81666C22.3572 8.8967 21.2417 9.09898 20.6209 9.30584C17.4302 10.52 14.2713 11.8241 11.1249 13.1512C10.7685 13.3091 10.4072 13.4669 10.0435 13.6257Z" fill="#707070"/>
</svg>
