<svg width="38" height="42" viewBox="0 0 38 42" fill="none" xmlns="http://www.w3.org/2000/svg">
<path d="M29.207 18.1733V7.88045C29.207 7.74784 29.1544 7.62066 29.0606 7.52689L27.3535 5.81979C27.2597 5.72602 27.1325 5.67334 26.9999 5.67334H20.707M29.207 18.1733L31.707 15.9233M29.207 18.1733L26.207 21.3608M31.707 15.9233L33.8544 13.9907C34.0521 13.8128 34.3544 13.8207 34.5425 14.0088L36.3465 15.8128C36.5445 16.0108 36.5413 16.3327 36.3395 16.5268L34.4129 18.3793M31.707 15.9233L34.4129 18.3793M34.4129 18.3793L29.06 23.5263M29.06 23.5263L29.2052 37.9951C29.2064 38.1104 29.1677 38.2225 29.0957 38.3125L27.3572 40.4857C27.2623 40.6043 27.1186 40.6733 26.9667 40.6733H4.38242C4.26889 40.6733 4.15873 40.6347 4.07007 40.5638L1.89468 38.8235C1.77608 38.7286 1.70703 38.5849 1.70703 38.433V7.42334C1.70703 7.26596 1.78113 7.11777 1.90703 7.02334L3.5737 5.77334C3.66025 5.70843 3.76551 5.67334 3.8737 5.67334H11.207M29.06 23.5263L26.207 26.2695M8.20703 8.17334H5.20703C4.93089 8.17334 4.70703 8.3972 4.70703 8.67334V37.1733C4.70703 37.4495 4.93089 37.6733 5.20703 37.6733H20.207M8.20703 8.17334V10.1733C8.20703 10.4495 8.43089 10.6733 8.70703 10.6733H22.707C22.9832 10.6733 23.207 10.4495 23.207 10.1733V8.17334M8.20703 8.17334L11.207 5.67334M23.207 8.17334H25.707C25.9832 8.17334 26.207 8.3972 26.207 8.67334V21.3608M23.207 8.17334L20.707 5.67334M26.207 21.3608L21.3051 26.5691C21.241 26.6372 21.1973 26.722 21.179 26.8137L20.8491 28.463C20.7805 28.8061 21.0764 29.1118 21.4216 29.0542L23.5543 28.6988C23.6538 28.6822 23.7459 28.6359 23.8186 28.566L26.207 26.2695M26.207 26.2695V31.9714M26.207 31.9714V37.1733C26.207 37.4495 25.9832 37.6733 25.707 37.6733H20.207M26.207 31.9714H20.707C20.4309 31.9714 20.207 32.1953 20.207 32.4714V37.6733M26.207 31.9714L20.207 37.6733M19.707 24.6733H7.70703M7.70703 27.1733H17.707M7.70703 30.1733H17.707M7.70703 32.6733H17.707M11.207 5.67334H12.707C12.9832 5.67334 13.207 5.44948 13.207 5.17334V2.82473C13.207 2.72602 13.2363 2.62951 13.291 2.54738L14.0586 1.39599C14.1513 1.25689 14.3074 1.17334 14.4746 1.17334H16.4394C16.6066 1.17334 16.7627 1.25689 16.8555 1.39599L17.6231 2.54738C17.6778 2.62951 17.707 2.72602 17.707 2.82473V5.17334C17.707 5.44948 17.9309 5.67334 18.207 5.67334H20.707" stroke="#9E9E9E" stroke-width="1.5" stroke-linejoin="round"/>
</svg>
