<svg width="30" height="33" viewBox="0 0 30 33" fill="none" xmlns="http://www.w3.org/2000/svg">
<path d="M26.483 3.87983H19.7685C19.1107 2.01872 17.3459 0.671021 15.2521 0.671021C13.1584 0.671021 11.3936 2.01872 10.7357 3.87983H4.02131C2.24844 3.87983 0.8125 5.31577 0.8125 7.08864V29.5503C0.8125 31.3232 2.24844 32.7591 4.02131 32.7591H26.483C28.2559 32.7591 29.6918 31.3232 29.6918 29.5503V7.08864C29.6918 5.31577 28.2559 3.87983 26.483 3.87983ZM15.2521 3.87983C16.1346 3.87983 16.8566 4.59379 16.8566 5.48424C16.8566 6.37468 16.1346 7.08864 15.2521 7.08864C14.3697 7.08864 13.6477 6.37468 13.6477 5.48424C13.6477 4.59379 14.3697 3.87983 15.2521 3.87983ZM15.2521 10.2975C17.9074 10.2975 20.0654 12.4554 20.0654 15.1107C20.0654 17.774 17.9074 19.9239 15.2521 19.9239C12.5969 19.9239 10.4389 17.774 10.4389 15.1107C10.4389 12.4554 12.5969 10.2975 15.2521 10.2975ZM24.8786 29.5503H5.62572V27.3042C5.62572 24.0953 12.0433 22.3305 15.2521 22.3305C18.461 22.3305 24.8786 24.0953 24.8786 27.3042V29.5503Z" fill="url(#paint0_linear_283_146)"/>
<defs>
<linearGradient id="paint0_linear_283_146" x1="32.3369" y1="0.671021" x2="-2.75558" y2="5.2173" gradientUnits="userSpaceOnUse">
<stop offset="0.0155367" stop-color="#19FB9B"/>
<stop offset="1" stop-color="#6CC0E6"/>
</linearGradient>
</defs>
</svg>
