<svg width="30" height="30" viewBox="0 0 30 30" fill="none" xmlns="http://www.w3.org/2000/svg">
<path fill-rule="evenodd" clip-rule="evenodd" d="M15 30C23.2843 30 30 23.2843 30 15C30 6.71573 23.2843 0 15 0C6.71573 0 0 6.71573 0 15C0 23.2843 6.71573 30 15 30ZM6 10C6.14454 17.0234 9.83364 21.25 15.9142 21.25H16.2669V17.232C18.4815 17.4568 20.1329 19.1124 20.8071 21.25H24C23.1338 18.0522 20.888 16.2842 19.4922 15.6088C20.8869 14.7734 22.8609 12.7482 23.3258 10H20.4209C19.8115 12.2349 17.9982 14.2601 16.2658 14.4524V10H13.3146V17.795C11.5185 17.3455 9.17564 15.1592 9.07964 10H6Z" fill="#707070"/>
</svg>
