<svg width="51" height="51" viewBox="0 0 51 51" fill="none" xmlns="http://www.w3.org/2000/svg">
<path d="M50.0156 25.4922C50.0156 11.6851 38.8227 0.492188 25.0156 0.492188C11.2085 0.492188 0.015625 11.6851 0.015625 25.4922C0.015625 39.2993 11.2085 50.4922 25.0156 50.4922C38.8227 50.4922 50.0156 39.2993 50.0156 25.4922Z" fill="#0077FF"/>
<path d="M12.5156 24.9922C12.5156 19.3339 12.5156 16.5089 14.2656 14.7422C16.0406 12.9922 18.8656 12.9922 24.5156 12.9922H25.5156C31.174 12.9922 33.999 12.9922 35.7656 14.7422C37.5156 16.5172 37.5156 19.3422 37.5156 24.9922V25.9922C37.5156 31.6505 37.5156 34.4755 35.7656 36.2422C33.9906 37.9922 31.1656 37.9922 25.5156 37.9922H24.5156C18.8573 37.9922 16.0323 37.9922 14.2656 36.2422C12.5156 34.4672 12.5156 31.6422 12.5156 25.9922V24.9922Z" fill="#0077FF"/>
<path d="M25.7742 32.0006C18.3807 32.0006 14.1651 26.9419 13.9922 18.5108H17.7105C17.8294 24.6936 20.5533 27.3095 22.7152 27.8499V18.5108H26.2065V23.8397C28.3359 23.6127 30.5842 21.1807 31.3409 18.5H34.8214C34.5376 19.8876 33.9707 21.2018 33.1561 22.3605C32.3415 23.5192 31.2967 24.4974 30.087 25.2341C31.437 25.906 32.6292 26.8565 33.585 28.0228C34.5408 29.1892 35.2385 30.5449 35.6321 32.0006H31.7948C30.9734 29.4389 28.9196 27.45 26.2065 27.1797V32.0006H25.785H25.7742Z" fill="white"/>
</svg>
