<svg width="30" height="30" viewBox="0 0 30 30" fill="none" xmlns="http://www.w3.org/2000/svg">
<path fill-rule="evenodd" clip-rule="evenodd" d="M15 30C23.2843 30 30 23.2843 30 15C30 6.71573 23.2843 0 15 0C6.71573 0 0 6.71573 0 15C0 23.2843 6.71573 30 15 30ZM21.2 9.3C21.9 9.5 22.4 10 22.6 10.7C23 12 23 14.6 23 14.6C23 14.6 23 17.2 22.7 18.5C22.5 19.2 22 19.7 21.3 19.9C20 20.2 15 20.2 15 20.2C15 20.2 9.9 20.2 8.7 19.9C8 19.7 7.5 19.2 7.3 18.5C7 17.2 7 14.6 7 14.6C7 14.6 7 12 7.2 10.7C7.4 10 7.90001 9.5 8.60001 9.3C9.90001 9 14.9 9 14.9 9C14.9 9 20 9 21.2 9.3ZM17.6 14.6L13.4 12.2V17L17.6 14.6Z" fill="#707070"/>
</svg>
