<svg width="51" height="51" viewBox="0 0 51 51" fill="none" xmlns="http://www.w3.org/2000/svg">
<path d="M0.132812 25.4922C0.132812 39.2993 11.3257 50.4922 25.1328 50.4922C38.9399 50.4922 50.1328 39.2993 50.1328 25.4922C50.1328 11.6851 38.9399 0.492188 25.1328 0.492188C11.3257 0.492188 0.132812 11.6851 0.132812 25.4922Z" fill="#FF0000"/>
<path d="M37.0078 19.3984C36.6953 18.3047 35.9141 17.5234 34.8203 17.2109C32.9453 16.7422 24.9766 16.7422 24.9766 16.7422C24.9766 16.7422 17.1641 16.7422 15.1328 17.2109C14.0391 17.5234 13.2578 18.3047 12.9453 19.3984C12.6328 21.4297 12.6328 25.4922 12.6328 25.4922C12.6328 25.4922 12.6328 29.5547 13.1016 31.5859C13.4141 32.6797 14.1953 33.4609 15.2891 33.7734C17.1641 34.2422 25.1328 34.2422 25.1328 34.2422C25.1328 34.2422 32.9453 34.2422 34.9765 33.7734C36.0703 33.4609 36.8516 32.6797 37.1641 31.5859C37.6328 29.5547 37.6328 25.4922 37.6328 25.4922C37.6328 25.4922 37.6328 21.4297 37.0078 19.3984ZM22.6328 29.2422V21.7422L29.1953 25.4922L22.6328 29.2422Z" fill="white"/>
</svg>
